<?xml version="1.0" encoding="UTF-8" standalone="no" ?>
<!DOCTYPE svg PUBLIC "-//W3C//DTD SVG 1.1//EN" "http://www.w3.org/Graphics/SVG/1.1/DTD/svg11.dtd">
<svg xmlns="http://www.w3.org/2000/svg" xmlns:xlink="http://www.w3.org/1999/xlink" version="1.1" width="1280" height="1024" viewBox="0 0 1280 1024" xml:space="preserve">
<desc>Created with Fabric.js 5.3.0</desc>
<defs>
</defs>
<g transform="matrix(1 0 0 1 640 512)" id="background-logo"  >
<rect style="stroke: none; stroke-width: 0; stroke-dasharray: none; stroke-linecap: butt; stroke-dashoffset: 0; stroke-linejoin: miter; stroke-miterlimit: 4; fill: rgb(255,255,255); fill-opacity: 0; fill-rule: nonzero; opacity: 1;"  paint-order="stroke"  x="-640" y="-512" rx="0" ry="0" width="1280" height="1024" />
</g>
<g transform="matrix(1.9211538461538462 0 0 1.9211538461538462 639.9519711538462 641.4836627109632)" id="text-logo"  >
<g style=""  paint-order="stroke"   >
		<g transform="matrix(1 0 0 1 0 0)" id="text-logo-path-0"  >
<path style="stroke: none; stroke-width: 0.5319148936170208; stroke-dasharray: none; stroke-linecap: butt; stroke-dashoffset: 0; stroke-linejoin: miter; stroke-miterlimit: 4; fill: rgb(175,71,240); fill-rule: nonzero; opacity: 1;"  paint-order="stroke"  transform=" translate(-191.2, 17.5)" d="M 19.15 0 L 28.35 0 L 36.5 -19.45 L 36.5 0 L 45 0 L 45 -35 L 34.5 -35 L 23.75 -9.3 L 13 -35 L 2.5 -35 L 2.5 0 L 11 0 L 11 -19.45 L 19.15 0 Z M 80.15 0 L 88.65 0 L 75.4 -35 L 66.4 -35 L 53.15 0 L 61.65 0 L 64.1 -6.5 L 77.7 -6.5 L 80.15 0 Z M 66.75 -13.5 L 70.9 -24.45 L 75.05 -13.5 L 66.75 -13.5 Z M 101.3 0 L 109.8 0 L 109.8 -28 L 120.8 -28 L 120.8 -35 L 90.3 -35 L 90.3 -28 L 101.3 -28 L 101.3 0 Z M 147 0.5 C 158.4 0.5 164.1 -3.65 164.1 -11.95 L 155.6 -11.95 C 155.6 -8.35 151.6 -6.5 147 -6.5 C 140.55 -6.5 137.45 -9.8 137.45 -17.55 C 137.45 -25 140.35 -28.5 147 -28.5 C 151.85 -28.5 155.65 -27 155.65 -23 L 164.15 -23 C 163.55 -31.35 157 -35.5 147 -35.5 C 134.8 -35.5 128.95 -30 128.95 -17.55 C 128.95 -5.35 134.45 0.5 147 0.5 Z M 197.3 0 L 205.8 0 L 205.8 -35 L 197.3 -35 L 197.3 -21 L 180.8 -21 L 180.8 -35 L 172.3 -35 L 172.3 0 L 180.8 0 L 180.8 -14 L 197.3 -14 L 197.3 0 Z M 213.95 0 L 222.45 0 L 222.45 -13 L 237.45 -13 L 237.45 -20 L 222.45 -20 L 222.45 -28 L 242.45 -28 L 242.45 -35 L 213.95 -35 L 213.95 0 Z M 250.6 0 L 279.1 0 L 279.1 -7 L 259.1 -7 L 259.1 -35 L 250.6 -35 L 250.6 0 Z M 305.3 0.5 C 317.25 0.5 323.25 -5.3 323.25 -17.55 C 323.25 -29.55 317.65 -35.5 305.3 -35.5 C 293.25 -35.5 287.25 -29.9 287.25 -17.55 C 287.25 -5.5 292.9 0.5 305.3 0.5 Z M 295.75 -17.55 C 295.75 -24.9 298.75 -28.5 305.3 -28.5 C 311.55 -28.5 314.75 -25 314.75 -17.55 C 314.75 -10.15 311.85 -6.5 305.3 -6.5 C 298.9 -6.5 295.75 -9.95 295.75 -17.55 Z M 361.15 0 L 370.15 0 L 379.9 -35 L 371.4 -35 L 365.25 -12.9 L 359.4 -35 L 350.9 -35 L 345.05 -12.9 L 338.9 -35 L 330.4 -35 L 340.15 0 L 349.15 0 L 355.15 -20.5 L 361.15 0 Z" stroke-linecap="round" />
</g>
</g>
</g>
<g transform="matrix(1.9211538461538462 0 0 1.9211538461538462 639.9731038461538 723.1440948539821)" id="tagline-c349782e-9ba2-4d7a-a88f-99e086d1d059-logo"  >
<g style=""  paint-order="stroke"   >
		<g transform="matrix(1 0 0 1 0 0)" id="tagline-c349782e-9ba2-4d7a-a88f-99e086d1d059-logo-path-0"  >
<path style="stroke: none; stroke-width: 0.45952459110699484; stroke-dasharray: none; stroke-linecap: butt; stroke-dashoffset: 0; stroke-linejoin: miter; stroke-miterlimit: 4; fill: rgb(175,71,240); fill-rule: nonzero; opacity: 1;"  paint-order="stroke"  transform=" translate(-163.8, 9.799999999999999)" d="M 10.72 0 L 15.88 0 L 20.44 -10.89 L 20.44 0 L 25.2 0 L 25.2 -19.6 L 19.32 -19.6 L 13.3 -5.21 L 7.28 -19.6 L 1.4 -19.6 L 1.4 0 L 6.16 0 L 6.16 -10.89 L 10.72 0 Z M 56.81 0 L 61.57 0 L 54.15 -19.6 L 49.11 -19.6 L 41.69 0 L 46.45 0 L 47.82 -3.64 L 55.44 -3.64 L 56.81 0 Z M 49.31 -7.56 L 51.63 -13.69 L 53.96 -7.56 L 49.31 -7.56 Z M 80.58 0 L 85.34 0 L 85.34 -15.68 L 91.5 -15.68 L 91.5 -19.6 L 74.42 -19.6 L 74.42 -15.68 L 80.58 -15.68 L 80.58 0 Z M 118.1 0.28 C 124.49 0.28 127.68 -2.04 127.68 -6.69 L 122.92 -6.69 C 122.92 -4.68 120.68 -3.64 118.1 -3.64 C 114.49 -3.64 112.76 -5.49 112.76 -9.83 C 112.76 -14 114.38 -15.96 118.1 -15.96 C 120.82 -15.96 122.95 -15.12 122.95 -12.88 L 127.71 -12.88 C 127.37 -17.56 123.7 -19.88 118.1 -19.88 C 111.27 -19.88 108 -16.8 108 -9.83 C 108 -3 111.08 0.28 118.1 0.28 Z M 158.2 0 L 162.96 0 L 162.96 -19.6 L 158.2 -19.6 L 158.2 -11.76 L 148.96 -11.76 L 148.96 -19.6 L 144.2 -19.6 L 144.2 0 L 148.96 0 L 148.96 -7.84 L 158.2 -7.84 L 158.2 0 Z M 208.07 0 L 213.22 0 L 217.78 -10.89 L 217.78 0 L 222.54 0 L 222.54 -19.6 L 216.66 -19.6 L 210.64 -5.21 L 204.62 -19.6 L 198.74 -19.6 L 198.74 0 L 203.5 0 L 203.5 -10.89 L 208.07 0 Z M 254.16 0 L 258.92 0 L 251.5 -19.6 L 246.46 -19.6 L 239.04 0 L 243.8 0 L 245.17 -3.64 L 252.78 -3.64 L 254.16 0 Z M 246.65 -7.56 L 248.98 -13.69 L 251.3 -7.56 L 246.65 -7.56 Z M 283.14 -3.92 L 280.17 -3.92 L 280.17 -15.68 L 283.14 -15.68 C 285.94 -15.68 287.59 -14.98 288.4 -13.3 C 288.79 -12.43 288.99 -11.28 288.99 -9.83 C 288.99 -7 288.26 -5.32 286.61 -4.54 C 285.74 -4.12 284.59 -3.92 283.14 -3.92 Z M 275.41 0 L 283.98 0 C 288.6 0 291.37 -1.23 292.74 -4.09 C 293.41 -5.52 293.75 -7.42 293.75 -9.83 C 293.75 -14.5 292.54 -17.25 289.72 -18.59 C 288.29 -19.26 286.38 -19.6 283.98 -19.6 L 275.41 -19.6 L 275.41 0 Z M 310.24 0 L 326.2 0 L 326.2 -3.92 L 315 -3.92 L 315 -7.84 L 323.4 -7.84 L 323.4 -11.76 L 315 -11.76 L 315 -15.68 L 326.2 -15.68 L 326.2 -19.6 L 310.24 -19.6 L 310.24 0 Z" stroke-linecap="round" />
</g>
</g>
</g>
<g transform="matrix(1.9211538461538462 0 0 1.9211538461538462 640 425.65954908206027)" id="tagline-83fdfb2a-8044-4ad8-b129-1c6be14b1c43-logo"  >
<g style=""  paint-order="stroke"   >
		<g transform="matrix(1 0 0 1 0 0)" id="tagline-83fdfb2a-8044-4ad8-b129-1c6be14b1c43-logo-path-0"  >
<linearGradient id="SVGID_95063" gradientUnits="userSpaceOnUse" gradientTransform="matrix(1 0 0 1 7.75 -108.5)"  x1="-7.75" y1="-27.766699999999986" x2="-7.75" y2="147.2333">
<stop offset="0%" style="stop-color:rgb(188,99,242);stop-opacity: 1"/>
<stop offset="100%" style="stop-color:rgb(165,47,238);stop-opacity: 1"/>
</linearGradient>
<path style="stroke: rgb(255,255,255); stroke-width: 0; stroke-dasharray: none; stroke-linecap: butt; stroke-dashoffset: 0; stroke-linejoin: miter; stroke-miterlimit: 4; fill: url(#SVGID_95063); fill-rule: nonzero; opacity: 1;"  paint-order="stroke"  transform=" translate(-73.625, 54.25)" d="M 59.37 0 L 87.89 0 L 113.15 -60.3 L 113.15 0 L 139.5 0 L 139.5 -108.5 L 106.95 -108.5 L 73.63 -28.83 L 40.3 -108.5 L 7.75 -108.5 L 7.75 0 L 34.1 0 L 34.1 -60.3 L 59.37 0 Z" stroke-linecap="round" />
</g>
</g>
</g>
</svg>